<svg width="21" height="14" viewBox="0 0 21 14" fill="none" xmlns="http://www.w3.org/2000/svg">
<path d="M5.4708 13.7514C4.4988 13.7514 3.6168 13.4934 2.8248 12.9774C2.0328 12.4614 1.4028 11.7114 0.934796 10.7274C0.478796 9.73145 0.250796 8.54944 0.250796 7.18144C0.250796 5.81344 0.478796 4.63745 0.934796 3.65345C1.4028 2.65745 2.0328 1.90144 2.8248 1.38544C3.6168 0.869445 4.4988 0.611445 5.4708 0.611445C6.4428 0.611445 7.3248 0.869445 8.1168 1.38544C8.9088 1.90144 9.5328 2.65745 9.9888 3.65345C10.4568 4.63745 10.6908 5.81344 10.6908 7.18144C10.6908 8.54944 10.4568 9.73145 9.9888 10.7274C9.5328 11.7114 8.9088 12.4614 8.1168 12.9774C7.3248 13.4934 6.4428 13.7514 5.4708 13.7514ZM5.4708 13.3914C6.8508 13.3914 7.5408 11.3214 7.5408 7.18144C7.5408 3.04144 6.8508 0.971444 5.4708 0.971444C4.0908 0.971444 3.4008 3.04144 3.4008 7.18144C3.4008 11.3214 4.0908 13.3914 5.4708 13.3914ZM12.0394 12.6714C12.0394 11.9634 12.1774 11.3214 12.4534 10.7454C12.7414 10.1574 13.0894 9.64745 13.4974 9.21544C13.9054 8.78345 14.4394 8.27345 15.0994 7.68544C15.7114 7.14544 16.1914 6.69545 16.5394 6.33545C16.8874 5.96344 17.1814 5.54944 17.4214 5.09344C17.6614 4.62545 17.7814 4.12145 17.7814 3.58145C17.7814 2.78944 17.5894 2.17144 17.2054 1.72744C16.8214 1.28344 16.3234 1.06144 15.7114 1.06144C15.3634 1.06144 15.0094 1.10944 14.6494 1.20544L14.2714 1.33145V4.21144L14.0374 4.26544C13.8454 4.28944 13.6834 4.30144 13.5514 4.30144C13.1434 4.30144 12.8134 4.18144 12.5614 3.94144C12.3214 3.68945 12.2014 3.35945 12.2014 2.95144C12.2014 2.56744 12.3454 2.19544 12.6334 1.83545C12.9334 1.47544 13.3714 1.18144 13.9474 0.953445C14.5354 0.725445 15.2434 0.611445 16.0714 0.611445C17.6914 0.611445 18.8914 0.935445 19.6714 1.58345C20.4514 2.23144 20.8414 3.13744 20.8414 4.30144C20.8414 5.03344 20.6494 5.66344 20.2654 6.19144C19.8934 6.71944 19.4314 7.15744 18.8794 7.50545C18.3394 7.85345 17.6134 8.24945 16.7014 8.69345C15.9334 9.06545 15.3094 9.39545 14.8294 9.68345C14.3614 9.95945 13.9234 10.2954 13.5154 10.6914C13.1194 11.0874 12.8374 11.5374 12.6694 12.0414H19.3294C19.4134 11.3934 19.6174 10.8534 19.9414 10.4214C20.0734 10.2174 20.2294 10.0374 20.4094 9.88145H20.9494V13.4814H12.0394V12.6714Z" fill="white"/>
</svg>
