<svg width="21" height="15" viewBox="0 0 21 15" fill="none" xmlns="http://www.w3.org/2000/svg">
<path d="M5.23605 14.1323C4.26405 14.1323 3.38205 13.8743 2.59005 13.3583C1.79805 12.8423 1.16805 12.0923 0.700055 11.1083C0.244055 10.1123 0.0160547 8.9303 0.0160547 7.5623C0.0160547 6.1943 0.244055 5.0183 0.700055 4.0343C1.16805 3.0383 1.79805 2.2823 2.59005 1.7663C3.38205 1.2503 4.26405 0.992304 5.23605 0.992304C6.20805 0.992304 7.09005 1.2503 7.88206 1.7663C8.67406 2.2823 9.29806 3.0383 9.75406 4.0343C10.2221 5.0183 10.4561 6.1943 10.4561 7.5623C10.4561 8.9303 10.2221 10.1123 9.75406 11.1083C9.29806 12.0923 8.67406 12.8423 7.88206 13.3583C7.09005 13.8743 6.20805 14.1323 5.23605 14.1323ZM5.23605 13.7723C6.61605 13.7723 7.30606 11.7023 7.30606 7.5623C7.30606 3.4223 6.61605 1.3523 5.23605 1.3523C3.85605 1.3523 3.16605 3.4223 3.16605 7.5623C3.16605 11.7023 3.85605 13.7723 5.23605 13.7723ZM15.5846 14.1323C14.7566 14.1323 14.0486 14.0183 13.4606 13.7903C12.8846 13.5623 12.4466 13.2683 12.1466 12.9083C11.8586 12.5483 11.7146 12.1763 11.7146 11.7923C11.7146 11.3843 11.8346 11.0603 12.0746 10.8203C12.3266 10.5683 12.6566 10.4423 13.0646 10.4423C13.1606 10.4423 13.2566 10.4543 13.3526 10.4783C13.4486 10.4903 13.5146 10.4963 13.5506 10.4963L13.7846 10.5323V13.4123C13.7966 13.4123 13.9226 13.4603 14.1626 13.5563C14.4746 13.6403 14.8286 13.6823 15.2246 13.6823C16.0646 13.6823 16.7066 13.4303 17.1506 12.9263C17.6066 12.4103 17.8346 11.6423 17.8346 10.6223C17.8346 9.5783 17.6126 8.7923 17.1686 8.2643C16.7366 7.7363 16.1486 7.4723 15.4046 7.4723H14.5046V7.0223H15.4046C15.9446 7.0223 16.3946 6.7823 16.7546 6.3023C17.1146 5.8223 17.2946 5.1323 17.2946 4.2323C17.2946 3.3323 17.1086 2.6423 16.7366 2.1623C16.3646 1.6823 15.8906 1.4423 15.3146 1.4423C15.0026 1.4423 14.7026 1.4903 14.4146 1.5863C14.3786 1.5983 14.2586 1.6403 14.0546 1.7123V4.5923L13.8206 4.6463C13.6286 4.6703 13.4666 4.6823 13.3346 4.6823C12.9266 4.6823 12.5966 4.5623 12.3446 4.3223C12.1046 4.0703 11.9846 3.7403 11.9846 3.3323C11.9846 2.9603 12.1286 2.5943 12.4166 2.2343C12.7046 1.8743 13.1246 1.5803 13.6766 1.3523C14.2406 1.1123 14.9066 0.992304 15.6746 0.992304C16.6826 0.992304 17.5346 1.1423 18.2306 1.4423C18.9386 1.7303 19.4666 2.1203 19.8146 2.6123C20.1746 3.1043 20.3546 3.6443 20.3546 4.2323C20.3546 4.9163 20.1806 5.4623 19.8326 5.8703C19.4846 6.2663 19.0286 6.5843 18.4646 6.8243C17.9126 7.0403 17.2826 7.1663 16.5746 7.2023V7.2923C17.3666 7.3283 18.0866 7.4663 18.7346 7.7063C20.1746 8.2823 20.8946 9.2543 20.8946 10.6223C20.8946 11.6783 20.4566 12.5303 19.5806 13.1783C18.7166 13.8143 17.3846 14.1323 15.5846 14.1323Z" fill="white"/>
</svg>
