<svg width="23" height="15" viewBox="0 0 23 15" fill="none" xmlns="http://www.w3.org/2000/svg">
<path d="M6.10422 14.1323C5.13222 14.1323 4.25022 13.8743 3.45822 13.3583C2.66622 12.8423 2.03622 12.0923 1.56822 11.1083C1.11222 10.1123 0.884219 8.9303 0.884219 7.5623C0.884219 6.1943 1.11222 5.0183 1.56822 4.0343C2.03622 3.0383 2.66622 2.2823 3.45822 1.7663C4.25022 1.2503 5.13222 0.992304 6.10422 0.992304C7.07622 0.992304 7.95822 1.2503 8.75022 1.7663C9.54222 2.2823 10.1662 3.0383 10.6222 4.0343C11.0902 5.0183 11.3242 6.1943 11.3242 7.5623C11.3242 8.9303 11.0902 10.1123 10.6222 11.1083C10.1662 12.0923 9.54222 12.8423 8.75022 13.3583C7.95822 13.8743 7.07622 14.1323 6.10422 14.1323ZM6.10422 13.7723C7.48422 13.7723 8.17422 11.7023 8.17422 7.5623C8.17422 3.4223 7.48422 1.3523 6.10422 1.3523C4.72422 1.3523 4.03422 3.4223 4.03422 7.5623C4.03422 11.7023 4.72422 13.7723 6.10422 13.7723ZM16.3628 13.8623V13.5923L17.6228 13.2323V10.5323H12.4928L12.1328 9.9923L18.8828 1.0823H20.5928V9.7223H22.4828V10.5323H20.5928V13.2323L21.8528 13.5923V13.8623H16.3628ZM13.1228 9.7223H17.6228V3.7823L13.1228 9.7223Z" fill="white"/>
</svg>
